<svg width="48" height="48" viewBox="0 0 48 48" fill="none" xmlns="http://www.w3.org/2000/svg">
<path d="M47.7331 10.2908C45.9952 11.0625 44.1274 11.5817 42.1658 11.8197C44.1634 10.6153 45.7067 8.71871 46.4279 6.45429C44.5529 7.56487 42.4759 8.37256 40.2692 8.80525C38.5024 6.92304 35.9855 5.74756 33.1947 5.74756C27.8437 5.74756 23.5024 10.0889 23.5024 15.4399C23.5024 16.1971 23.5889 16.9399 23.7548 17.6466C15.6995 17.2428 8.56007 13.3774 3.77882 7.51439C2.94228 8.94948 2.46632 10.6153 2.46632 12.3966C2.46632 15.7572 4.17545 18.7211 6.77882 20.4591C5.18507 20.4086 3.69228 19.9759 2.38699 19.2476C2.38699 19.2908 2.38699 19.3269 2.38699 19.3702C2.38699 24.0649 5.72593 27.9807 10.161 28.875C9.34612 29.0985 8.49516 29.2139 7.60815 29.2139C6.98074 29.2139 6.37497 29.1562 5.78363 29.0408C7.0168 32.8846 10.5937 35.6971 14.8341 35.7692C11.524 38.3726 7.34132 39.9158 2.79805 39.9158C2.01199 39.9158 1.24757 39.8726 0.490356 39.786C4.77401 42.5336 9.87257 44.1346 15.3461 44.1346C33.173 44.1346 42.923 29.3653 42.923 16.5649C42.923 16.1394 42.9158 15.7211 42.8942 15.3028C44.7908 13.9471 46.4351 12.2379 47.7331 10.2908Z" fill="#E5E5E5"/>
</svg>
