<svg width="37" height="37" viewBox="0 0 37 37" fill="none" xmlns="http://www.w3.org/2000/svg">
<path d="M11.12 0.459961C5.24056 0.459961 0.459961 5.24056 0.459961 11.12V25.88C0.459961 31.7594 5.24056 36.54 11.12 36.54H25.88C31.7594 36.54 36.54 31.7594 36.54 25.88V11.12C36.54 5.24056 31.7594 0.459961 25.88 0.459961H11.12ZM28.34 7.01996C29.242 7.01996 29.98 7.75796 29.98 8.65996C29.98 9.56196 29.242 10.3 28.34 10.3C27.438 10.3 26.7 9.56196 26.7 8.65996C26.7 7.75796 27.438 7.01996 28.34 7.01996ZM18.5 9.47996C23.4774 9.47996 27.52 13.5226 27.52 18.5C27.52 23.4774 23.4774 27.52 18.5 27.52C13.5226 27.52 9.47996 23.4774 9.47996 18.5C9.47996 13.5226 13.5226 9.47996 18.5 9.47996ZM18.5 11.12C14.4328 11.12 11.12 14.4328 11.12 18.5C11.12 22.5672 14.4328 25.88 18.5 25.88C22.5672 25.88 25.88 22.5672 25.88 18.5C25.88 14.4328 22.5672 11.12 18.5 11.12Z" fill="#E5E5E5"/>
</svg>
